<svg id="Layer_1" data-name="Layer 1" xmlns="http://www.w3.org/2000/svg" viewBox="0 0 612 792"><defs><style>.cls-1{fill:#fff;}</style></defs><title>lumos logo invert</title><path class="cls-1" d="M612,792H0V0H612ZM587.48,65.61H20.9V623.13H587.48ZM264,674.85v61h14.16V707.66a156.24,156.24,0,0,1,7.37,23.78c1.24,5.84,5.19,4.85,9.06,4.8s7.83,1.22,9-4.82c1.58-7.82,4.28-15.43,6.49-23.13l1.07.12v27.42H326.4V674.45H305.17c-3.31,12.76-6.56,25.25-10.3,39.65-2.33-9-4.1-16.16-6.06-23.29-4.88-17.7-4.92-17.69-23.72-16.47A6.51,6.51,0,0,0,264,674.85ZM377.4,705.91c0,15.42,6.12,25.82,17.82,30.37,12.94,5,29.77,2.28,37.19-7.24,7-9,7.94-19,6.34-30.08-3.28-22.68-20.58-29.05-38.44-25.3C385,676.89,377.41,688.52,377.4,705.91ZM158.19,674.35c0,14.48-.46,28.36.17,42.2.41,9.18,4,17.33,14.12,20,4.61,1.22,9.58,2.53,14.2,2,17.89-1.94,23.91-7.91,24.86-25.14.4-7.14.07-14.33.07-21.49V674.52H195.07c0,14.18.06,28,0,41.9,0,5.93-4.45,9.76-10.77,9.67a9.53,9.53,0,0,1-9.57-9.61c-.11-9.91,0-19.82,0-29.73,0-4.11,0-8.22,0-12.4Zm382.08,19.83c-.6-6.76-2.85-12.52-8.3-16.45-6-4.37-13-5.1-20.36-4.91-11.78.31-20.78,6.88-21.84,17.49-.86,8.64,3.23,15.71,16,19.3,5.21,1.46,10.65,2.23,15.71,4.06,2.07.74,4.89,3.62,4.73,5.26-.23,2.23-2.56,5.14-4.74,6.14-8.05,3.67-16.11-.38-18.53-8.72H486.8c2.32,5.18,3.48,10,6.25,13.58,8.58,11.11,31.84,11.3,42.25,3.29,6.41-4.93,7.76-12,6.36-19.25-1.56-8-8.47-11-15.46-13.09-5.58-1.69-11.46-2.49-16.91-4.48a7.74,7.74,0,0,1-4.15-5.73c-.06-1.53,2.73-4,4.72-4.65,7.26-2.46,13,.62,16.44,8.16ZM64.59,674.47V735.9h45.92V723.29H80.11V674.47Z"/><path d="M587.48,65.61V623.13H20.9V65.61ZM558,594.47V94.28H50.16V594.47Z"/><path d="M264,674.85a6.51,6.51,0,0,1,1.11-.51c18.8-1.22,18.84-1.23,23.72,16.47,2,7.13,3.73,14.31,6.06,23.29,3.74-14.4,7-26.89,10.3-39.65H326.4v61.38H311.17V708.41l-1.07-.12c-2.21,7.7-4.91,15.31-6.49,23.13-1.21,6-5.24,4.76-9,4.82s-7.82,1-9.06-4.8a156.24,156.24,0,0,0-7.37-23.78v28.16H264Z"/><path d="M377.4,705.91c0-17.39,7.55-29,22.91-32.25,17.86-3.75,35.16,2.62,38.44,25.3,1.6,11,.64,21.12-6.34,30.08-7.42,9.52-24.25,12.28-37.19,7.24C383.52,731.73,377.4,721.33,377.4,705.91Zm30.18,19c12.12.81,16.38-7.87,16.83-18.81.51-12.27-5.55-19.41-15.3-19.65-10.63-.26-16.22,6-16.41,18.38C392.49,718.61,397.08,724.79,407.58,724.94Z"/><path d="M158.19,674.35h16.48c0,4.18,0,8.29,0,12.4,0,9.91-.08,19.82,0,29.73a9.53,9.53,0,0,0,9.57,9.61c6.32.09,10.73-3.74,10.77-9.67.08-13.86,0-27.72,0-41.9h16.54V692c0,7.16.33,14.35-.07,21.49-.95,17.23-7,23.2-24.86,25.14-4.62.5-9.59-.81-14.2-2-10.15-2.68-13.71-10.83-14.12-20C157.73,702.71,158.19,688.83,158.19,674.35Z"/><path d="M540.27,694.18h-14c-3.44-7.55-9.18-10.63-16.44-8.17-2,.67-4.78,3.12-4.72,4.65a7.74,7.74,0,0,0,4.15,5.73c5.45,2,11.33,2.79,16.91,4.48,7,2.12,13.9,5.06,15.46,13.09,1.4,7.26.05,14.32-6.36,19.25-10.41,8-33.67,7.82-42.25-3.29-2.77-3.59-3.93-8.4-6.25-13.58h16.14c2.42,8.34,10.48,12.39,18.53,8.72,2.18-1,4.51-3.91,4.74-6.14.16-1.64-2.66-4.52-4.73-5.26-5.06-1.83-10.5-2.6-15.71-4.06-12.77-3.59-16.86-10.66-16-19.3,1.06-10.61,10.06-17.18,21.84-17.49,7.32-.19,14.32.54,20.36,4.91C537.42,681.66,539.67,687.42,540.27,694.18Z"/><path d="M64.59,674.47H80.11v48.82h30.4V735.9H64.59Z"/><path class="cls-1" d="M558,594.47H50.16V94.28H558ZM245,345.2c-16.08,17.6-32.35,36.13-49.43,53.9-18,18.77-36.86,36.8-55.31,55.18-13.48,13.43-9.83,29.8,8.53,35.19a105,105,0,0,0,29,4.48c19.88,0,39.77-1.33,59.64-2.29q21.82-1.07,43.63-2.61c22.32-1.56,44.62-3.4,66.93-4.95,13.1-.91,26.21-1.69,39.33-2.16,21.15-.76,42.22,0,63,4.67,6.55,1.46,12,4.34,15.13,10.83a12.08,12.08,0,0,0,6.2,5.81c2.83.94,7.28,1.16,9.17-.46,1.67-1.43,1.91-6.27.85-8.81-4.56-10.91-13.74-17.07-24.45-21.17-23.23-8.9-47.8-10.08-72.09-9.93-30.43.2-60.85,2.8-91.26,4.74-21.46,1.36-42.86,3.67-64.33,4.95s-42.72,1.88-64.09,2.54c-3.94.13-7.93-.88-13-1.51,6.51-5.92,12.24-10.64,17.39-15.91,22.34-22.84,44.8-45.59,66.64-68.89,12.52-13.35,23.67-28,36-41.53,7.11-7.85,12.25-17.47,22.43-22.69,22.13-11.33,39.9-28,54.87-47.53a192.07,192.07,0,0,0,37.34-87.63c1.42-8.9.24-18.49-1.47-27.44-.65-3.36-5.78-7.08-9.63-8.32-5-1.62-8.43,2.57-10.67,7-.75,1.47-1.27,3.06-2,4.56-7.67,16.21-13.94,33.29-23.35,48.43-17.75,28.55-37.08,56.14-56.28,83.77-5.47,7.87-11.27,15.46-21.72,18.9-18.37,6.05-36.82,10.44-56.14,12.21-21.86,2-43.42.74-65-2.45-7.25-1.08-14.52-2.34-21.82-2.76-5.34-.3-7.69,3.85-5.8,8.91a16.22,16.22,0,0,0,13.54,10.87c20,2.56,40.08,5.92,60.18,6.29C206.34,349.7,225.73,346.71,245,345.2Z"/><path class="cls-1" d="M407.58,724.94c-10.5-.15-15.09-6.33-14.88-20.08.19-12.37,5.78-18.64,16.41-18.38,9.75.24,15.81,7.38,15.3,19.65C424,717.07,419.7,725.75,407.58,724.94Z"/><path d="M245,345.2c-19.29,1.51-38.68,4.5-58,4.14-20.1-.37-40.16-3.73-60.18-6.29a16.22,16.22,0,0,1-13.54-10.87c-1.89-5.06.46-9.21,5.8-8.91,7.3.42,14.57,1.68,21.82,2.76,21.57,3.19,43.13,4.45,65,2.45,19.32-1.77,37.77-6.16,56.14-12.21,10.45-3.44,16.25-11,21.72-18.9,19.2-27.63,38.53-55.22,56.28-83.77,9.41-15.14,15.68-32.22,23.35-48.43.71-1.5,1.23-3.09,2-4.56,2.24-4.38,5.65-8.57,10.67-7,3.85,1.24,9,5,9.63,8.32,1.71,9,2.89,18.54,1.47,27.44a192.07,192.07,0,0,1-37.34,87.63c-15,19.57-32.74,36.2-54.87,47.53-10.18,5.22-15.32,14.84-22.43,22.69-12.31,13.56-23.46,28.18-36,41.53-21.84,23.3-44.3,46.05-66.64,68.89-5.15,5.27-10.88,10-17.39,15.91,5.06.63,9.05,1.64,13,1.51,21.37-.66,42.75-1.27,64.09-2.54s42.87-3.59,64.33-4.95c30.41-1.94,60.83-4.54,91.26-4.74,24.29-.15,48.86,1,72.09,9.93,10.71,4.1,19.89,10.26,24.45,21.17,1.06,2.54.82,7.38-.85,8.81-1.89,1.62-6.34,1.4-9.17.46a12.08,12.08,0,0,1-6.2-5.81c-3.17-6.49-8.58-9.37-15.13-10.83-20.76-4.64-41.83-5.43-63-4.67-13.12.47-26.23,1.25-39.33,2.16-22.31,1.55-44.61,3.39-66.93,4.95q-21.8,1.53-43.63,2.61c-19.87,1-39.76,2.31-59.64,2.29a105,105,0,0,1-29-4.48c-18.36-5.39-22-21.76-8.53-35.19,18.45-18.38,37.27-36.41,55.31-55.18C212.67,381.33,228.94,362.8,245,345.2Z"/></svg>